<mxfile host="app.diagrams.net" modified="2023-11-21T07:12:49.929Z" agent="Mozilla/5.0 (Windows NT 10.0; Win64; x64) AppleWebKit/537.36 (KHTML, like Gecko) Chrome/95.0.4638.69 Safari/537.36" version="22.1.3" etag="l8MxlSqRsf45cqxOsFda" type="github">
  <diagram name="第 1 页" id="FKG7Um1uTRyvuzOa39Ti">
    <mxGraphModel>
      <root>
        <mxCell id="0" />
        <mxCell id="1" parent="0" />
      </root>
    </mxGraphModel>
  </diagram>
</mxfile>
